<svg width="921" height="594" viewBox="0 0 921 594" fill="none" xmlns="http://www.w3.org/2000/svg">
<path fill-rule="evenodd" clip-rule="evenodd" d="M103.055 259.534C79.2252 259.534 68.1961 289.13 86.2148 304.726L177.871 384.053C190.757 395.206 207.23 401.345 224.273 401.345H268.542C292.578 401.345 315.81 410.002 333.984 425.732L432.056 510.613C450.231 526.343 473.463 535 497.499 535H771.741C816.347 535 836.991 479.601 803.264 450.41L745.079 400.052C731.43 388.239 739.785 365.82 757.836 365.82V365.82C775.887 365.82 784.241 343.401 770.592 331.588L638.977 217.676C623.646 204.407 604.048 197.104 583.772 197.104H429.373C405.337 197.104 382.105 188.446 363.931 172.717L353.064 163.311C335.691 148.275 313.484 140 290.508 140H125.328C93.8116 140 79.2252 179.142 103.055 199.767L119.896 214.342C137.915 229.938 126.886 259.534 103.055 259.534V259.534Z" fill="url(#paint0_linear_55_210)"/>
<g filter="url(#filter0_d_55_210)">
<path fill-rule="evenodd" clip-rule="evenodd" d="M103.055 238.837C79.1956 238.837 68.1366 268.456 86.1582 284.093L177.803 363.613C190.732 374.83 207.274 381.006 224.39 381.006H268.47C292.549 381.006 315.82 389.695 334.007 405.475L432.033 490.531C450.22 506.312 473.491 515 497.57 515H771.601C816.311 515 837.033 459.497 803.264 430.196L745.036 379.673C731.385 367.828 739.762 345.391 757.836 345.391V345.391C775.909 345.391 784.286 322.955 770.635 311.11L639.057 196.942C623.676 183.596 603.996 176.248 583.632 176.248H429.444C405.365 176.248 382.095 167.56 363.908 151.779L353.125 142.423C335.715 127.317 313.439 119 290.389 119H125.427C93.8372 119 79.1956 158.215 103.055 178.918L119.953 193.58C137.974 209.217 126.915 238.837 103.055 238.837V238.837Z" fill="#2D314D"/>
</g>
<path fill-rule="evenodd" clip-rule="evenodd" d="M109.25 217.652C85.0028 217.652 73.7778 247.765 92.1088 263.637L185.349 344.368C198.465 355.725 215.234 361.976 232.584 361.976H278.232C302.276 361.976 325.514 370.639 343.69 386.377L444.427 473.599C462.603 489.338 485.842 498 509.885 498H789.482C834.876 498 855.891 441.625 821.573 411.911L762.374 360.654C748.489 348.631 756.992 325.822 775.359 325.822V325.822C793.726 325.822 802.228 303.012 788.343 290.989L654.457 175.064C638.852 161.553 618.902 154.116 598.26 154.116H440.58C416.537 154.116 393.299 145.453 375.123 129.715L363.594 119.733C345.915 104.426 323.312 96 299.926 96H131.924C99.8507 96 85.0028 135.832 109.25 156.826L126.392 171.668C144.723 187.54 133.498 217.652 109.25 217.652V217.652Z" fill="url(#paint1_linear_55_210)"/>
<g filter="url(#filter1_d_55_210)">
<path fill-rule="evenodd" clip-rule="evenodd" d="M109.25 197.863C84.8848 197.863 73.541 228.068 91.8827 244.107L185.08 325.605C198.363 337.221 215.41 343.623 233.055 343.623H277.953C302.165 343.623 325.555 352.407 343.781 368.345L444.336 456.278C462.563 472.216 485.952 481 510.164 481H788.919C834.73 481 856.058 424.21 821.573 394.054L762.203 342.138C748.31 329.988 756.902 307.108 775.359 307.108V307.108C793.815 307.108 802.408 284.229 788.514 272.079L654.777 155.13C638.973 141.311 618.693 133.694 597.699 133.694H440.86C416.648 133.694 393.258 124.91 375.032 108.972L363.837 99.1821C346.009 83.5923 323.131 75 299.448 75H132.322C99.9542 75 84.8848 115.125 109.25 136.431L126.618 151.619C144.959 167.658 133.616 197.863 109.25 197.863V197.863Z" fill="#2D314D"/>
</g>
<defs>
<filter id="filter0_d_55_210" x="0.220947" y="44" width="896.79" height="550" filterUnits="userSpaceOnUse" color-interpolation-filters="sRGB">
<feFlood flood-opacity="0" result="BackgroundImageFix"/>
<feColorMatrix in="SourceAlpha" type="matrix" values="0 0 0 0 0 0 0 0 0 0 0 0 0 0 0 0 0 0 127 0" result="hardAlpha"/>
<feOffset dy="2"/>
<feGaussianBlur stdDeviation="38.5"/>
<feColorMatrix type="matrix" values="0 0 0 0 0 0 0 0 0 0 0 0 0 0 0 0 0 0 0.0240111 0"/>
<feBlend mode="normal" in2="BackgroundImageFix" result="effect1_dropShadow_55_210"/>
<feBlend mode="normal" in="SourceGraphic" in2="effect1_dropShadow_55_210" result="shape"/>
</filter>
<filter id="filter1_d_55_210" x="5.81396" y="0" width="909.809" height="560" filterUnits="userSpaceOnUse" color-interpolation-filters="sRGB">
<feFlood flood-opacity="0" result="BackgroundImageFix"/>
<feColorMatrix in="SourceAlpha" type="matrix" values="0 0 0 0 0 0 0 0 0 0 0 0 0 0 0 0 0 0 127 0" result="hardAlpha"/>
<feOffset dy="2"/>
<feGaussianBlur stdDeviation="38.5"/>
<feColorMatrix type="matrix" values="0 0 0 0 0 0 0 0 0 0 0 0 0 0 0 0 0 0 0.0240111 0"/>
<feBlend mode="normal" in2="BackgroundImageFix" result="effect1_dropShadow_55_210"/>
<feBlend mode="normal" in="SourceGraphic" in2="effect1_dropShadow_55_210" result="shape"/>
</filter>
<linearGradient id="paint0_linear_55_210" x1="-397.681" y1="336.671" x2="-100.878" y2="988.134" gradientUnits="userSpaceOnUse">
<stop stop-color="#33D35E"/>
<stop offset="1" stop-color="#2AB6D9"/>
</linearGradient>
<linearGradient id="paint1_linear_55_210" x1="-400.149" y1="296.156" x2="-98.0049" y2="959.07" gradientUnits="userSpaceOnUse">
<stop stop-color="#33D35E"/>
<stop offset="1" stop-color="#2AB6D9"/>
</linearGradient>
</defs>
</svg>
