<svg width="765" height="445" viewBox="0 0 765 445" fill="none" xmlns="http://www.w3.org/2000/svg">
<path fill-rule="evenodd" clip-rule="evenodd" d="M124.436 140.391C105.768 140.391 97.3713 163.777 111.776 175.651L185.515 236.433C195.224 244.436 207.414 248.813 219.996 248.813H251.296C274.505 248.813 296.992 256.886 314.901 271.649L383.463 328.164C401.373 342.927 423.859 351 447.069 351H663.321C697.561 351 712.962 308.105 686.54 286.326L640.483 248.361C629.571 239.367 635.932 221.652 650.072 221.652V221.652C664.213 221.652 670.573 203.937 659.661 194.943L553.443 107.388C541.892 97.8662 527.389 92.6592 512.419 92.6592H390.798C368.611 92.6592 347.115 84.9417 329.995 70.8296L324.174 66.0315C310.817 55.0212 294.046 49 276.736 49H140.841C116.649 49 105.768 79.3074 124.436 94.6953L137.095 105.13C151.5 117.004 143.104 140.391 124.436 140.391V140.391Z" fill="url(#paint0_linear_56_211)"/>
<g filter="url(#filter0_d_56_211)">
<path fill-rule="evenodd" clip-rule="evenodd" d="M96.4356 163.062C78.123 163.062 70.0692 186.151 84.4089 197.54L158.265 256.202C167.504 263.541 178.956 267.535 190.754 267.535H224.316C246.903 267.535 268.825 275.182 286.512 289.23L355.853 344.305C373.539 358.353 395.461 366 418.048 366H636.803C669.902 366 684.459 324.268 658.54 303.682L612.962 267.48C602.1 258.853 608.201 241.363 622.072 241.363V241.363C635.944 241.363 642.044 223.874 631.182 215.247L524.55 130.552C513.558 121.821 499.934 117.069 485.897 117.069H362.298C340.398 117.069 319.144 109.655 301.995 96.0345L295.432 90.8216C282.533 80.5766 266.546 75 250.074 75H111.794C88.4081 75 78.123 104.486 96.4355 119.031L108.462 128.583C122.802 139.973 114.748 163.062 96.4356 163.062V163.062Z" fill="#2D314D"/>
</g>
<defs>
<filter id="filter0_d_56_211" x="0.0605469" y="0" width="748.762" height="445" filterUnits="userSpaceOnUse" color-interpolation-filters="sRGB">
<feFlood flood-opacity="0" result="BackgroundImageFix"/>
<feColorMatrix in="SourceAlpha" type="matrix" values="0 0 0 0 0 0 0 0 0 0 0 0 0 0 0 0 0 0 127 0" result="hardAlpha"/>
<feOffset dy="2"/>
<feGaussianBlur stdDeviation="38.5"/>
<feColorMatrix type="matrix" values="0 0 0 0 0 0 0 0 0 0 0 0 0 0 0 0 0 0 0.0240111 0"/>
<feBlend mode="normal" in2="BackgroundImageFix" result="effect1_dropShadow_56_211"/>
<feBlend mode="normal" in="SourceGraphic" in2="effect1_dropShadow_56_211" result="shape"/>
</filter>
<linearGradient id="paint0_linear_56_211" x1="-277.54" y1="199.366" x2="-57.91" y2="705.533" gradientUnits="userSpaceOnUse">
<stop stop-color="#33D35E"/>
<stop offset="1" stop-color="#2AB6D9"/>
</linearGradient>
</defs>
</svg>
