<svg width="761" height="594" viewBox="0 0 761 594" fill="none" xmlns="http://www.w3.org/2000/svg">
<path fill-rule="evenodd" clip-rule="evenodd" d="M-56.9445 259.534C-80.7748 259.534 -91.8039 289.13 -73.7852 304.726L17.8706 384.053C30.7572 395.206 47.2298 401.345 64.2727 401.345H108.542C132.578 401.345 155.81 410.002 173.984 425.732L272.056 510.613C290.231 526.343 313.463 535 337.499 535H611.741C656.347 535 676.991 479.601 643.264 450.41L585.079 400.052C571.43 388.239 579.785 365.82 597.836 365.82C615.887 365.82 624.241 343.401 610.592 331.588L478.977 217.676C463.646 204.407 444.048 197.104 423.772 197.104H269.373C245.337 197.104 222.105 188.446 203.931 172.717L193.064 163.311C175.691 148.275 153.484 140 130.508 140H-34.6723C-66.1884 140 -80.7748 179.142 -56.9445 199.767L-40.1039 214.342C-22.0852 229.938 -33.1143 259.534 -56.9445 259.534Z" fill="url(#paint0_linear_98_8)"/>
<g filter="url(#filter0_d_98_8)">
<path fill-rule="evenodd" clip-rule="evenodd" d="M-56.9445 238.837C-80.8044 238.837 -91.8634 268.456 -73.8418 284.094L17.8034 363.613C30.7317 374.83 47.2736 381.006 64.3902 381.006H108.47C132.549 381.006 155.82 389.695 174.007 405.475L272.033 490.531C290.22 506.312 313.491 515 337.57 515H611.601C656.311 515 677.033 459.497 643.264 430.196L585.036 379.673C571.385 367.828 579.762 345.391 597.836 345.391C615.909 345.391 624.286 322.955 610.635 311.11L479.057 196.942C463.676 183.596 443.996 176.248 423.632 176.248H269.444C245.365 176.248 222.095 167.56 203.908 151.779L193.125 142.423C175.715 127.317 153.439 119 130.389 119H-34.5732C-66.1628 119 -80.8044 158.215 -56.9445 178.918L-40.0473 193.58C-22.0257 209.217 -33.0846 238.837 -56.9445 238.837Z" fill="#2D314D"/>
</g>
<path fill-rule="evenodd" clip-rule="evenodd" d="M-50.7498 217.652C-74.9972 217.652 -86.2222 247.765 -67.8912 263.637L25.3485 344.368C38.465 355.725 55.2341 361.976 72.5841 361.976H118.232C142.276 361.976 165.514 370.639 183.69 386.377L284.427 473.599C302.603 489.338 325.841 498 349.885 498H629.482C674.876 498 695.891 441.625 661.573 411.911L602.374 360.654C588.489 348.631 596.992 325.822 615.359 325.822C633.726 325.822 642.228 303.012 628.343 290.989L494.457 175.064C478.852 161.553 458.902 154.116 438.26 154.116H280.58C256.537 154.116 233.299 145.453 215.123 129.715L203.594 119.733C185.915 104.426 163.312 96 139.926 96H-28.0757C-60.1493 96 -74.9972 135.832 -50.7498 156.826L-33.6083 171.668C-15.2774 187.54 -26.5023 217.652 -50.7498 217.652Z" fill="url(#paint1_linear_98_8)"/>
<g filter="url(#filter1_d_98_8)">
<path fill-rule="evenodd" clip-rule="evenodd" d="M-50.7498 197.863C-75.1152 197.863 -86.459 228.068 -68.1173 244.107L25.0803 325.605C38.3635 337.221 55.4098 343.623 73.0554 343.623H117.953C142.165 343.623 165.555 352.407 183.781 368.345L284.336 456.278C302.563 472.216 325.952 481 350.164 481H628.919C674.73 481 696.058 424.21 661.573 394.054L602.203 342.138C588.31 329.988 596.902 307.108 615.359 307.108C633.815 307.108 642.408 284.229 628.514 272.079L494.777 155.13C478.973 141.311 458.693 133.694 437.699 133.694H280.86C256.648 133.694 233.258 124.91 215.032 108.972L203.837 99.1821C186.009 83.5923 163.131 75 139.448 75H-27.6784C-60.0458 75 -75.1152 115.125 -50.7498 136.431L-33.3822 151.619C-15.0406 167.658 -26.3844 197.863 -50.7498 197.863Z" fill="#2D314D"/>
</g>
<defs>
<filter id="filter0_d_98_8" x="-159.779" y="44" width="896.79" height="550" filterUnits="userSpaceOnUse" color-interpolation-filters="sRGB">
<feFlood flood-opacity="0" result="BackgroundImageFix"/>
<feColorMatrix in="SourceAlpha" type="matrix" values="0 0 0 0 0 0 0 0 0 0 0 0 0 0 0 0 0 0 127 0" result="hardAlpha"/>
<feOffset dy="2"/>
<feGaussianBlur stdDeviation="38.5"/>
<feColorMatrix type="matrix" values="0 0 0 0 0 0 0 0 0 0 0 0 0 0 0 0 0 0 0.0240111 0"/>
<feBlend mode="normal" in2="BackgroundImageFix" result="effect1_dropShadow_98_8"/>
<feBlend mode="normal" in="SourceGraphic" in2="effect1_dropShadow_98_8" result="shape"/>
</filter>
<filter id="filter1_d_98_8" x="-154.186" y="0" width="909.809" height="560" filterUnits="userSpaceOnUse" color-interpolation-filters="sRGB">
<feFlood flood-opacity="0" result="BackgroundImageFix"/>
<feColorMatrix in="SourceAlpha" type="matrix" values="0 0 0 0 0 0 0 0 0 0 0 0 0 0 0 0 0 0 127 0" result="hardAlpha"/>
<feOffset dy="2"/>
<feGaussianBlur stdDeviation="38.5"/>
<feColorMatrix type="matrix" values="0 0 0 0 0 0 0 0 0 0 0 0 0 0 0 0 0 0 0.0240111 0"/>
<feBlend mode="normal" in2="BackgroundImageFix" result="effect1_dropShadow_98_8"/>
<feBlend mode="normal" in="SourceGraphic" in2="effect1_dropShadow_98_8" result="shape"/>
</filter>
<linearGradient id="paint0_linear_98_8" x1="-557.681" y1="336.671" x2="-260.878" y2="988.134" gradientUnits="userSpaceOnUse">
<stop stop-color="#33D35E"/>
<stop offset="1" stop-color="#2AB6D9"/>
</linearGradient>
<linearGradient id="paint1_linear_98_8" x1="-560.149" y1="296.156" x2="-258.005" y2="959.07" gradientUnits="userSpaceOnUse">
<stop stop-color="#33D35E"/>
<stop offset="1" stop-color="#2AB6D9"/>
</linearGradient>
</defs>
</svg>
